<?xml version="1.0" standalone="no"?>
<!DOCTYPE svg PUBLIC "-//W3C//DTD SVG 20010904//EN"
 "http://www.w3.org/TR/2001/REC-SVG-20010904/DTD/svg10.dtd">
<svg version="1.0" xmlns="http://www.w3.org/2000/svg"
 width="510.000000pt" height="544.000000pt" viewBox="0 0 510.000000 544.000000"
 preserveAspectRatio="xMidYMid meet">
<metadata>
Created by potrace 1.16, written by Peter Selinger 2001-2019
</metadata>
<g transform="translate(0.000000,544.000000) scale(0.100000,-0.100000)"
fill="#000000" stroke="none">
<path d="M2350 4987 c-80 -56 -159 -112 -174 -124 -35 -28 -42 -29 -49 -2 -9
34 -24 13 -31 -43 -11 -81 -72 -278 -116 -374 -52 -113 -225 -364 -250 -364
-5 0 -11 13 -15 29 -4 21 -11 28 -24 24 -16 -4 -16 -8 2 -76 12 -49 17 -98 15
-154 -2 -68 0 -83 14 -92 15 -9 18 -6 24 25 3 19 4 71 2 114 l-5 79 49 60 c27
33 90 122 141 197 88 130 95 138 140 152 53 17 54 35 1 26 -18 -3 -34 -3 -34
0 0 3 11 45 24 93 13 48 29 111 35 138 24 99 44 127 159 212 59 44 140 102
180 128 39 26 72 50 72 51 0 11 -29 -6 -160 -99z"/>
<path d="M2245 4693 c-95 -50 -138 -144 -104 -230 11 -27 12 -26 25 35 18 85
40 121 94 150 40 21 55 23 138 20 l94 -4 -52 23 c-62 27 -150 30 -195 6z"/>
<path d="M2300 4633 c-33 -13 -70 -45 -84 -75 -9 -17 -16 -33 -16 -35 0 -2 25
-16 56 -30 75 -34 127 -27 176 25 35 37 58 72 58 90 0 22 -147 41 -190 25z"/>
<path d="M2466 4505 c-40 -62 -141 -84 -223 -50 -41 17 -53 9 -46 -30 4 -18
15 -26 48 -34 115 -29 188 6 233 112 15 34 9 35 -12 2z"/>
<path d="M1677 4485 c65 -55 78 -133 39 -227 -21 -49 -21 -50 17 -46 29 3 33
8 51 60 24 76 16 120 -32 168 -20 20 -55 46 -77 59 l-40 22 42 -36z"/>
<path d="M1551 4473 c-15 -55 -13 -139 4 -173 18 -35 61 -70 86 -70 36 0 75
112 59 170 -10 36 -30 59 -82 93 -41 26 -56 21 -67 -20z"/>
<path d="M1491 4449 c-53 -128 -3 -257 113 -290 43 -12 98 -5 114 14 8 9 1 13
-25 15 -47 3 -112 33 -141 65 -32 34 -43 89 -36 175 4 39 4 72 2 72 -3 0 -15
-23 -27 -51z"/>
<path d="M2004 4082 c-95 -63 -161 -139 -193 -221 -30 -76 -28 -85 36 -133 31
-24 64 -56 75 -73 l18 -30 0 58 c0 78 15 65 23 -19 8 -85 22 -101 31 -37 4 26
14 81 22 121 8 40 12 77 10 81 -3 4 1 8 9 8 8 0 13 -3 11 -6 -2 -3 -9 -58 -16
-121 -6 -63 -13 -124 -16 -135 l-5 -20 12 20 c7 11 15 22 19 25 4 3 22 33 41
68 33 63 50 69 30 12 -9 -28 0 -42 14 -20 3 5 33 21 67 37 l61 27 -7 65 c-8
89 -53 179 -129 259 -33 34 -63 62 -66 62 -3 0 -24 -12 -47 -28z"/>
<path d="M1385 3802 c-43 -5 -55 -19 -55 -63 0 -92 44 -218 102 -291 75 -96
229 -161 366 -157 34 1 62 3 62 3 0 1 -6 21 -14 46 -7 25 -11 50 -9 57 3 7 -8
15 -24 18 -68 15 -166 50 -186 66 -24 20 -9 26 22 9 18 -9 161 -50 161 -45 0
1 -54 38 -120 81 -66 44 -120 82 -120 87 0 10 28 9 35 -2 5 -9 212 -131 222
-131 6 0 -88 123 -101 132 -6 4 -14 4 -20 1 -5 -3 -6 -1 -2 5 4 6 -1 23 -10
37 -29 44 -7 27 90 -69 l95 -94 36 16 c19 9 35 20 35 24 0 17 -44 94 -76 133
-88 108 -284 163 -489 137z"/>
<path d="M2325 3714 c-77 -16 -140 -42 -181 -73 -60 -45 -122 -124 -103 -129
8 -3 26 -15 40 -28 l25 -24 57 44 c70 54 144 99 158 94 6 -2 -13 -20 -43 -41
-93 -65 -157 -129 -99 -97 10 5 29 11 42 13 13 3 60 16 104 30 121 39 132 41
119 28 -5 -6 -63 -31 -127 -55 -163 -62 -169 -68 -72 -63 44 2 88 7 98 11 10
5 17 4 17 -2 0 -19 -41 -29 -157 -38 -80 -7 -82 -8 -88 -35 -4 -15 -15 -40
-26 -54 -15 -18 -17 -25 -7 -26 7 0 20 -2 28 -4 139 -34 240 -26 347 26 112
54 206 187 226 321 5 35 4 37 -43 57 -96 41 -236 61 -315 45z"/>
<path d="M2663 3417 c-170 -284 -66 -609 244 -765 43 -23 53 -18 53 26 0 10 9
34 19 53 l20 37 -41 33 c-52 44 -143 157 -152 189 -7 24 -6 24 16 -4 30 -37
172 -184 165 -171 -122 246 -201 446 -108 274 16 -29 35 -53 41 -51 6 1 9 -2
5 -7 -6 -10 81 -171 92 -171 8 0 -6 156 -18 207 -7 24 -9 46 -7 49 10 10 51
-127 69 -229 l11 -68 37 2 c20 1 46 -1 58 -5 30 -10 38 22 30 123 -15 197
-148 373 -361 476 -134 64 -136 64 -173 2z"/>
<path d="M3450 3354 c-81 -22 -177 -69 -224 -111 -70 -63 -70 -63 -35 -136 17
-36 33 -91 36 -121 l6 -55 39 61 c21 33 41 58 44 55 3 -3 -10 -39 -29 -79 -19
-40 -40 -89 -46 -108 l-11 -35 23 26 c12 14 66 79 120 143 55 65 101 115 104
112 3 -3 0 -14 -8 -25 -8 -10 -51 -71 -96 -134 -46 -64 -87 -118 -93 -122 -5
-3 -10 -10 -10 -15 0 -10 73 30 145 80 22 15 51 33 65 40 24 12 24 11 -5 -21
-16 -18 -37 -39 -45 -45 -12 -10 1 -12 60 -13 41 -1 87 -3 102 -6 23 -5 30 1
56 47 16 29 35 77 42 107 17 72 8 218 -19 304 l-22 67 -72 -1 c-40 0 -97 -7
-127 -15z"/>
<path d="M1486 3267 c-50 -50 -96 -140 -96 -187 0 -35 123 -90 213 -95 44 -3
130 17 149 34 8 7 38 154 33 159 -2 2 -17 -4 -34 -13 -44 -22 -38 -5 11 33 52
40 43 40 -56 2 -76 -29 -101 -34 -74 -13 7 5 43 22 81 38 37 15 67 30 67 31 0
2 -25 2 -56 1 -47 -3 -54 -2 -40 8 14 11 11 13 -24 19 -23 3 -59 13 -82 20
l-41 15 -51 -52z"/>
<path d="M1909 3287 c-38 -25 -68 -95 -69 -160 0 -23 -9 -51 -21 -69 -20 -28
-21 -31 -5 -71 9 -24 16 -50 16 -60 0 -9 17 -25 39 -37 22 -11 42 -24 45 -29
4 -5 24 -3 49 7 54 20 67 30 61 47 -3 7 6 21 19 30 34 22 42 59 20 95 -14 24
-15 34 -5 55 17 36 15 97 -4 145 -13 33 -38 60 -56 60 -2 0 -2 -37 0 -82 2
-46 2 -81 -2 -77 -3 3 -6 19 -8 36 -3 47 -18 28 -19 -25 -1 -26 -5 -60 -10
-77 -5 -20 -7 5 -4 70 l3 100 -19 -44 c-28 -62 -32 -46 -10 35 11 38 18 70 17
71 -2 2 -18 -7 -37 -20z"/>
<path d="M2360 3230 c-14 -5 -49 -8 -77 -9 -29 -1 -53 -5 -53 -10 0 -6 -12 -6
-32 0 -61 17 -60 9 0 -35 104 -77 87 -86 -23 -13 l-60 40 30 -34 c17 -19 36
-38 43 -42 7 -5 10 -13 6 -18 -3 -5 -22 4 -42 20 l-37 29 0 -83 c1 -95 7 -106
74 -136 66 -30 172 -35 241 -12 51 17 55 20 58 53 8 74 -31 182 -83 236 -15
16 -26 19 -45 14z"/>
<path d="M2503 2826 c-57 -21 -127 -68 -176 -118 -12 -13 -17 -27 -13 -42 8
-34 72 -126 114 -165 45 -42 141 -87 203 -96 44 -7 46 -6 73 34 16 23 48 59
72 81 l44 40 -55 0 c-64 0 -76 20 -12 21 23 1 53 4 67 9 l25 7 -25 6 c-14 3
-54 12 -90 21 l-65 15 78 -5 c43 -3 85 -8 95 -11 36 -14 -9 26 -55 48 -27 13
-40 25 -33 29 7 4 -2 16 -24 34 -20 15 -49 47 -66 71 -37 54 -61 57 -157 21z"/>
<path d="M3375 2806 c-85 -27 -127 -61 -96 -80 5 -3 12 -22 16 -42 5 -31 9
-35 28 -29 39 12 314 17 297 6 -8 -6 -31 -11 -50 -11 -19 0 -75 -7 -125 -15
-49 -8 -94 -15 -98 -15 -5 0 -5 -4 -2 -10 3 -5 16 -10 28 -10 32 0 364 -83
350 -87 -11 -4 -329 40 -383 53 -22 5 -21 4 7 -15 38 -24 179 -91 193 -91 5 0
12 -5 15 -11 19 -30 -174 42 -248 93 l-28 20 -39 -36 c-22 -19 -51 -38 -66
-42 l-26 -7 39 -39 c84 -87 188 -148 298 -174 174 -41 337 10 478 149 l68 67
-22 38 c-62 102 -192 206 -327 263 -65 27 -91 32 -172 35 -57 1 -111 -3 -135
-10z"/>
<path d="M2940 2581 c-48 -26 -85 -65 -118 -123 -19 -34 -33 -48 -49 -48 -12
0 -33 -14 -48 -32 -22 -26 -26 -39 -21 -67 4 -24 1 -40 -10 -53 -15 -16 -14
-21 10 -64 14 -25 26 -53 26 -60 0 -8 10 -14 25 -14 14 0 45 -5 70 -12 41 -11
46 -10 59 7 7 11 29 24 47 30 42 14 79 67 79 111 0 19 4 34 9 34 16 0 64 55
82 95 22 48 24 124 5 151 -17 22 -14 26 -51 -54 -37 -79 -64 -104 -30 -28 14
31 25 59 25 63 0 4 -26 -28 -57 -71 -32 -43 -59 -73 -61 -67 -2 6 8 26 23 45
15 20 24 40 19 47 -4 7 -3 9 3 6 5 -3 20 8 33 26 21 28 18 27 -29 -13 -72 -61
-91 -74 -91 -62 0 6 36 44 80 85 44 40 80 77 80 80 0 14 -77 5 -110 -12z"/>
<path d="M3221 2300 c38 -78 60 -142 44 -128 -4 4 -30 49 -57 100 -49 92 -49
92 -44 48 3 -25 8 -54 12 -63 3 -9 2 -17 -4 -17 -5 0 -16 20 -23 45 -13 45
-29 60 -29 29 0 -20 -54 -117 -75 -134 -20 -17 -19 -38 4 -86 48 -97 147 -172
271 -204 70 -18 71 -18 89 2 11 11 31 55 45 98 26 79 32 140 20 212 -6 32 -12
39 -43 49 -20 6 -56 22 -80 35 -51 28 -52 28 -45 9 4 -11 2 -13 -9 -9 -9 3
-18 12 -21 21 -4 9 -13 13 -22 9 -8 -3 -12 -2 -9 4 5 8 -43 60 -56 60 -3 0 11
-36 32 -80z"/>
<path d="M2940 1485 l0 -105 80 0 80 0 0 105 0 105 -80 0 -80 0 0 -105z"/>
<path d="M740 960 l0 -580 80 0 80 0 0 250 0 250 130 0 130 0 0 110 0 110
-130 0 -130 0 0 110 0 110 140 0 140 0 0 110 0 110 -220 0 -220 0 0 -580z"/>
<path d="M1960 1375 l0 -125 -30 0 -31 0 3 -92 3 -93 28 -3 27 -3 0 -222 c0
-319 16 -396 89 -444 27 -18 48 -23 102 -23 37 0 80 5 94 12 24 11 25 14 25
105 0 74 -3 93 -14 93 -8 0 -18 -4 -21 -10 -3 -5 -24 -10 -45 -10 -65 0 -70
20 -70 279 l0 220 73 3 72 3 3 93 3 92 -76 0 -75 0 0 125 0 125 -80 0 -80 0 0
-125z"/>
<path d="M1465 1261 c-116 -52 -175 -203 -175 -444 0 -216 50 -362 144 -424
41 -28 57 -33 108 -33 104 0 172 55 217 174 58 157 53 444 -11 597 -36 85
-123 149 -203 149 -22 0 -58 -9 -80 -19z m132 -206 c32 -36 45 -120 41 -269
-3 -107 -7 -139 -25 -178 -35 -77 -102 -77 -139 -1 -26 55 -33 306 -10 386 27
93 81 118 133 62z"/>
<path d="M3555 1266 c-16 -7 -47 -32 -67 -54 -21 -23 -40 -42 -43 -42 -3 0 -5
18 -5 40 l0 40 -75 0 -75 0 0 -435 0 -435 75 0 75 0 0 309 0 309 31 26 c30 26
63 33 85 18 35 -23 39 -54 42 -359 l4 -303 74 0 74 0 0 343 c0 276 -3 354 -15
402 -21 78 -51 124 -91 141 -40 17 -50 17 -89 0z"/>
<path d="M4075 1261 c-102 -46 -160 -177 -172 -387 -13 -244 51 -440 162 -494
79 -38 185 -20 241 42 35 37 74 125 90 197 19 92 18 313 -2 404 -47 205 -177
303 -319 238z m109 -182 c35 -16 53 -60 66 -161 13 -100 2 -250 -24 -311 -31
-75 -100 -75 -138 0 -21 44 -23 60 -23 208 0 144 2 165 22 208 18 39 36 56 70
66 1 1 13 -4 27 -10z"/>
<path d="M2370 1150 l0 -100 115 0 114 0 -119 -242 -120 -242 0 -93 0 -93 218
2 217 3 0 100 0 100 -121 5 -121 5 118 239 119 239 0 88 0 89 -210 0 -210 0 0
-100z"/>
<path d="M2945 1237 c-3 -6 -4 -201 -3 -432 l3 -420 78 -3 77 -3 0 436 0 435
-75 0 c-51 0 -77 -4 -80 -13z"/>
</g>
</svg>
